Coordinates
version=1
nRows=11
nColumns=40
inDegrees=yes

Units are S.I. units (second, meters, Newtons, ...)
If the header above contains a line with 'inDegrees', this indicates whether rotational values are in degrees (yes) or radians (no).

endheader
time	pelvis_tilt	pelvis_list	pelvis_rotation	pelvis_tx	pelvis_ty	pelvis_tz	hip_flexion_r	hip_adduction_r	hip_rotation_r	knee_angle_r	knee_angle_r_beta	ankle_angle_r	subtalar_angle_r	mtp_angle_r	hip_flexion_l	hip_adduction_l	hip_rotation_l	knee_angle_l	knee_angle_l_beta	ankle_angle_l	subtalar_angle_l	mtp_angle_l	lumbar_extension	lumbar_bending	lumbar_rotation	arm_flex_r	arm_add_r	arm_rot_r	elbow_flex_r	pro_sup_r	wrist_flex_r	wrist_dev_r	arm_flex_l	arm_add_l	arm_rot_l	elbow_flex_l	pro_sup_l	wrist_flex_l	wrist_dev_l
      0.00500000	      0.42460496	      4.15574229	     -2.67895818	      0.24836948	      0.91570174	     -1.21210463	      0.59411971	    -23.12204099	    -36.76544675	      5.63873816	      0.09841455	     -7.77315188	      9.19984507	      0.00000000	      0.26045723	    -12.66883109	    -38.39155422	      5.58880837	      0.09754311	     -5.56065801	     12.11525119	      0.00000000	    -13.07781232	     -3.78597618	     -1.91445213	     42.40398895	    -16.53662627	     42.40398895	     76.00286115	     44.17686693	      0.00000000	      0.00000000	     42.40398895	    -16.53662627	     42.40398895	     76.00286115	     44.17686693	      0.00000000	      0.00000000
      0.01000000	      0.44019724	      4.04543598	     -2.65955025	      0.24838226	      0.91579256	     -1.21214022	      0.48281155	    -22.91892770	    -36.62801551	      5.42492983	      0.09468289	     -7.88307532	      8.92932967	      0.00000000	      0.26276351	    -12.80952799	    -38.38933926	      5.64849545	      0.09858484	     -5.52293977	     12.15951053	      0.00000000	    -13.12908867	     -3.28705978	     -1.26200546	     42.63338423	    -16.34410549	     42.63338423	     75.81862738	     44.40656187	      0.00000000	      0.00000000	     42.63338423	    -16.34410549	     42.63338423	     75.81862738	     44.40656187	      0.00000000	      0.00000000
      0.01500000	      0.41441508	      4.16275469	     -2.70201711	      0.24843317	      0.91566638	     -1.21207023	      0.63878062	    -23.15828816	    -36.82844827	      5.71081723	      0.09967256	     -7.71884745	      9.34388455	      0.00000000	      0.26481568	    -12.66736728	    -38.42728145	      5.60696434	      0.09785999	     -5.54598645	     12.15773579	      0.00000000	    -13.07967021	     -3.79989885	     -1.89730319	     42.87172003	    -16.14853362	     42.87172003	     75.63979473	     44.60709876	      0.00000000	      0.00000000	     42.87172003	    -16.14853362	     42.87172003	     75.63979473	     44.60709876	      0.00000000	      0.00000000
      0.02000000	      0.42422542	      4.09872677	     -2.70546016	      0.24842147	      0.91570895	     -1.21207108	      0.59877244	    -23.05545614	    -36.77670195	      5.63179911	      0.09829344	     -7.79577850	      9.23854020	      0.00000000	      0.25278198	    -12.73879432	    -38.38702105	      5.61640184	      0.09802470	     -5.51711592	     12.07789397	      0.00000000	    -13.13030934	     -3.71640732	     -1.86746862	     42.88645936	    -16.13564341	     42.88645936	     75.62636382	     44.62678079	      0.00000000	      0.00000000	     42.88645936	    -16.13564341	     42.88645936	     75.62636382	     44.62678079	      0.00000000	      0.00000000
      0.02500000	      0.41729805	      4.13826321	     -2.68828779	      0.24849117	      0.91570083	     -1.21213425	      0.57039177	    -23.07777120	    -36.71253792	      5.56023671	      0.09704444	     -7.80502764	      9.11638075	      0.00000000	      0.26155976	    -12.69082805	    -38.39211540	      5.60656074	      0.09785294	     -5.52955239	     12.13506873	      0.00000000	    -13.11011142	     -3.73236947	     -1.85315268	     42.89495973	    -16.12803226	     42.89495973	     75.61792949	     44.64202656	      0.00000000	      0.00000000	     42.89495973	    -16.12803226	     42.89495973	     75.61792949	     44.64202656	      0.00000000	      0.00000000
      0.03000000	      0.41313281	      4.17402240	     -2.75214495	      0.24849769	      0.91567776	     -1.21203230	      0.61883090	    -23.12119337	    -36.62824137	      5.58524312	      0.09748088	     -7.79690033	      9.06658971	      0.00000000	      0.22731391	    -12.63056403	    -38.39588318	      5.54633119	      0.09680174	     -5.56205472	     12.04453166	      0.00000000	    -13.10640087	     -3.51509758	     -1.30929189	     43.15480151	    -15.95501156	     43.15480151	     75.51078371	     44.70906638	      0.00000000	      0.00000000	     43.15480151	    -15.95501156	     43.15480151	     75.51078371	     44.70906638	      0.00000000	      0.00000000
      0.03500000	      0.40714777	      4.09856215	     -2.63885139	      0.24856066	      0.91569977	     -1.21226032	      0.54962843	    -23.04422127	    -36.82801360	      5.56819599	      0.09718335	     -7.80649472	      9.22777050	      0.00000000	      0.30862440	    -12.75522882	    -38.37203451	      5.68730740	      0.09926224	     -5.47710253	     12.14994681	      0.00000000	    -13.12374936	     -3.52080510	     -1.60984004	     43.28574145	    -15.85549862	     43.28574145	     75.42700873	     44.79356313	      0.00000000	      0.00000000	     43.28574145	    -15.85549862	     43.28574145	     75.42700873	     44.79356313	      0.00000000	      0.00000000
      0.04000000	      0.41355505	      4.11807770	     -2.70016428	      0.24857717	      0.91570043	     -1.21215681	      0.56174488	    -23.04524881	    -36.68000944	      5.53267028	      0.09656331	     -7.82050081	      9.06462283	      0.00000000	      0.26164523	    -12.71468794	    -38.38787457	      5.62838813	      0.09823390	     -5.49472752	     12.10803963	      0.00000000	    -13.13413985	     -3.59295632	     -1.61043074	     43.31665296	    -15.83329673	     43.31665296	     75.40987578	     44.80890224	      0.00000000	      0.00000000	     43.31665296	    -15.83329673	     43.31665296	     75.40987578	     44.80890224	      0.00000000	      0.00000000
      0.04500000	      0.43804357	      4.14729004	     -2.67099319	      0.24859888	      0.91574195	     -1.21226583	      0.53683690	    -23.10073243	    -36.72948494	      5.58264255	      0.09743549	     -7.86616093	      8.98809437	      0.00000000	      0.24973356	    -12.66750858	    -38.34038946	      5.63461391	      0.09834256	     -5.50050662	     11.94548384	      0.00000000	    -13.18293750	     -3.58767753	     -1.61304001	     43.32212601	    -15.82877809	     43.32212601	     75.40551880	     44.81422802	      0.00000000	      0.00000000	     43.32212601	    -15.82877809	     43.32212601	     75.40551880	     44.81422802	      0.00000000	      0.00000000
      0.05000000	      0.40290928	      4.10935739	     -2.71025973	      0.24865098	      0.91569061	     -1.21216711	      0.57901894	    -23.04010912	    -36.66658348	      5.54327223	      0.09674835	     -7.83413205	      9.04249008	      0.00000000	      0.26626300	    -12.72558235	    -38.38929423	      5.63786899	      0.09839938	     -5.47650950	     12.10600428	      0.00000000	    -13.14757143	     -3.64126182	     -1.69373679	     43.33057322	    -15.82138606	     43.33057322	     75.39788234	     44.82431120	      0.00000000	      0.00000000	     43.33057322	    -15.82138606	     43.33057322	     75.39788234	     44.82431120	      0.00000000	      0.00000000
      0.05500000	      0.41668961	      4.09808146	     -2.74725995	      0.24869797	      0.91571279	     -1.21210622	      0.58406311	    -23.02451364	    -36.60318235	      5.55143152	      0.09689076	     -7.80829245	      9.03084753	      0.00000000	      0.21073296	    -12.71551409	    -38.36068966	      5.57183801	      0.09724692	     -5.46754609	     12.06321342	      0.00000000	    -13.16676199	     -3.64646981	     -1.67617424	     43.36459303	    -15.79675562	     43.36459303	     75.37839032	     44.84234672	      0.00000000	      0.00000000	     43.36459303	    -15.79675562	     43.36459303	     75.37839032	     44.84234672	      0.00000000	      0.00000000
